<svg id="visual" viewBox="0 0 900 600" width="900" height="600" xmlns="http://www.w3.org/2000/svg" xmlns:xlink="http://www.w3.org/1999/xlink" version="1.1"><path fill="#00274d"></path><path d="M0 540L18.8 542.8C37.7 545.7 75.3 551.3 112.8 550.7C150.3 550 187.7 543 225.2 542C262.7 541 300.3 546 337.8 549C375.3 552 412.7 553 450.2 553.5C487.7 554 525.3 554 562.8 551C600.3 548 637.7 542 675.2 539.3C712.7 536.7 750.3 537.3 787.8 541.8C825.3 546.3 862.7 554.7 881.3 558.8L900 563L900 601L881.3 601C862.7 601 825.3 601 787.8 601C750.3 601 712.7 601 675.2 601C637.7 601 600.3 601 562.8 601C525.3 601 487.7 601 450.2 601C412.7 601 375.3 601 337.8 601C300.3 601 262.7 601 225.2 601C187.7 601 150.3 601 112.8 601C75.3 601 37.7 601 18.8 601L0 601Z" fill="#002c58"></path><path d="M0 551L18.8 551.8C37.7 552.7 75.3 554.3 112.8 556.7C150.3 559 187.7 562 225.2 563.8C262.7 565.7 300.3 566.3 337.8 565.3C375.3 564.3 412.7 561.7 450.2 561C487.7 560.3 525.3 561.7 562.8 562C600.3 562.3 637.7 561.7 675.2 560.8C712.7 560 750.3 559 787.8 557.2C825.3 555.3 862.7 552.7 881.3 551.3L900 550L900 601L881.3 601C862.7 601 825.3 601 787.8 601C750.3 601 712.7 601 675.2 601C637.7 601 600.3 601 562.8 601C525.3 601 487.7 601 450.2 601C412.7 601 375.3 601 337.8 601C300.3 601 262.7 601 225.2 601C187.7 601 150.3 601 112.8 601C75.3 601 37.7 601 18.8 601L0 601Z" fill="#003263"></path><path d="M0 563L18.8 564.3C37.7 565.7 75.3 568.3 112.8 568.8C150.3 569.3 187.7 567.7 225.2 566.8C262.7 566 300.3 566 337.8 567.8C375.3 569.7 412.7 573.3 450.2 574.7C487.7 576 525.3 575 562.8 573.3C600.3 571.7 637.7 569.3 675.2 567.2C712.7 565 750.3 563 787.8 564C825.3 565 862.7 569 881.3 571L900 573L900 601L881.3 601C862.7 601 825.3 601 787.8 601C750.3 601 712.7 601 675.2 601C637.7 601 600.3 601 562.8 601C525.3 601 487.7 601 450.2 601C412.7 601 375.3 601 337.8 601C300.3 601 262.7 601 225.2 601C187.7 601 150.3 601 112.8 601C75.3 601 37.7 601 18.8 601L0 601Z" fill="#01386e"></path><path d="M0 575L18.8 575.5C37.7 576 75.3 577 112.8 578.3C150.3 579.7 187.7 581.3 225.2 582.2C262.7 583 300.3 583 337.8 582.2C375.3 581.3 412.7 579.7 450.2 579C487.7 578.3 525.3 578.7 562.8 579.2C600.3 579.7 637.7 580.3 675.2 579.7C712.7 579 750.3 577 787.8 576.7C825.3 576.3 862.7 577.7 881.3 578.3L900 579L900 601L881.3 601C862.7 601 825.3 601 787.8 601C750.3 601 712.7 601 675.2 601C637.7 601 600.3 601 562.8 601C525.3 601 487.7 601 450.2 601C412.7 601 375.3 601 337.8 601C300.3 601 262.7 601 225.2 601C187.7 601 150.3 601 112.8 601C75.3 601 37.7 601 18.8 601L0 601Z" fill="#023e79"></path></svg>